PathFileType	4	(X/Y/Z)	./resultDataOpenSim/trcMotMarkerGrf/sub06/qtm-02-06.trc
DataRate	CameraRate	NumFrames	NumMarkers	Units	OrigDataRate	OrigDataStartFrame	OrigNumFrames
250.000000	250.000000	12	24	m	250.000000	63	497
Frame#	Time	L.Toe.Tip			R.Toe.Tip			L.Ankle.Lat			R.Ankle.Lat			L.Ankle.Med			R.Ankle.Med			L.Heel			R.Heel			L.Knee.Lat			R.Knee.Lat			L.Knee.Med			R.Knee.Med			L.Thigh.Upper			R.Thigh.Upper			L.ASIS			R.ASIS			V.Sacral			L.Acromium			R.Acromium			C7			L.Elbow			R.Elbow			L.Wrist.Lat			R.Wrist.Lat
		X1	Y1	Z1	X2	Y2	Z2	X3	Y3	Z3	X4	Y4	Z4	X5	Y5	Z5	X6	Y6	Z6	X7	Y7	Z7	X8	Y8	Z8	X9	Y9	Z9	X10	Y10	Z10	X11	Y11	Z11	X12	Y12	Z12	X13	Y13	Z13	X14	Y14	Z14	X15	Y15	Z15	X16	Y16	Z16	X17	Y17	Z17	X18	Y18	Z18	X19	Y19	Z19	X20	Y20	Z20	X21	Y21	Z21	X22	Y22	Z22	X23	Y23	Z23	X24	Y24	Z24

63	0.248	-1.2778943	0.079963034	-0.09668398	-0.76704626	0.036219539	0.088835564	-1.2815522	0.21034754	-0.12467383	-0.9022792	0.060984874	0.10923662	-1.2651292	0.21516921	-0.042880171	-0.88250263	0.079885819	0.022756503	-1.3318372	0.26513743	-0.077663142	-0.95674237	0.037579754	0.047239456	-0.94911664	0.38467428	-0.14884853	-0.83984306	0.44346302	0.13706721	-0.9454215	0.37097617	-0.027751907	-0.8770758	0.43084089	0.013469176	-1.0016575	0.77522172	-0.14428728	-0.97015739	0.79760401	0.19871748	-0.92323537	0.82679955	-0.10868681	-0.89040284	0.84576399	0.13358008	-1.0902064	0.91223572	0.033173715	-0.97233855	1.325735	-0.14779763	-0.97436682	1.2936292	0.21442029	-1.0483789	1.3514273	0.035259285	-1.0006426	1.0032091	-0.21389973	-1.0692556	0.98987667	0.26832094	-0.81653531	0.83858167	-0.19689378	-0.94130099	0.78877892	0.3099448
64	0.252	-1.261338	0.07987397	-0.096472332	-0.76723624	0.036269061	0.089010846	-1.2675046	0.21004237	-0.12380924	-0.90259345	0.060999496	0.1093923	-1.2508153	0.21517188	-0.042134775	-0.88264148	0.08001997	0.022956469	-1.3183806	0.26405832	-0.076736862	-0.95681831	0.037619918	0.047279655	-0.93673821	0.38711495	-0.14825877	-0.83859169	0.44341558	0.13742618	-0.93314858	0.37353488	-0.026812128	-0.8753649	0.43112296	0.013868325	-0.99553328	0.77716875	-0.14379376	-0.96395021	0.7987596	0.19965849	-0.91737333	0.82863246	-0.10835803	-0.88411146	0.84711509	0.13458182	-1.0842755	0.9140642	0.034051675	-0.9668462	1.3275651	-0.14749281	-0.96821092	1.295707	0.21467471	-1.0423986	1.3531452	0.035596187	-0.99589313	1.0052685	-0.21269148	-1.0618643	0.99160967	0.26859853	-0.8131441	0.83929676	-0.19707929	-0.93190606	0.79150113	0.31069013
65	0.256	-1.2447558	0.079601114	-0.096211259	-0.7674008	0.036313793	0.089169615	-1.2534028	0.20950375	-0.12291411	-0.90280581	0.061027458	0.10952449	-1.2363368	0.21490289	-0.041416144	-0.88275109	0.080146943	0.023140178	-1.3048152	0.26271735	-0.075762862	-0.95688058	0.037664672	0.047318055	-0.9243418	0.38969232	-0.14763703	-0.837477	0.44336764	0.13764765	-0.92077254	0.37620334	-0.025912349	-0.87370369	0.43139986	0.014211914	-0.98935631	0.77918257	-0.14331706	-0.95841833	0.79977965	0.20032441	-0.91142851	0.83051712	-0.10799285	-0.87782982	0.84847768	0.13560729	-1.0785153	0.91583505	0.03461631	-0.96133285	1.3294142	-0.1471846	-0.96202754	1.2977938	0.2149048	-1.036396	1.3548727	0.035949054	-0.99123895	1.0073767	-0.21152563	-1.0544814	0.99338226	0.26907702	-0.80971295	0.84004013	-0.19728104	-0.92252151	0.79426434	0.31139879
66	0.26	-1.2282306	0.079130951	-0.095786029	-0.76754169	0.036355468	0.089303367	-1.2391028	0.20875304	-0.12204616	-0.90278077	0.061109397	0.10963763	-1.2217165	0.21436243	-0.040728257	-0.88283854	0.080268521	0.023297472	-1.291241	0.2611409	-0.074696357	-0.95693866	0.03770204	0.047360903	-0.9119947	0.39239798	-0.14699544	-0.83638078	0.44331966	0.13783817	-0.90825518	0.37897911	-0.025063096	-0.87215989	0.43166719	0.014482306	-0.98310634	0.78124747	-0.14279065	-0.95365884	0.80071381	0.20069374	-0.90544635	0.83245041	-0.10761202	-0.87215347	0.84979168	0.1365631	-1.0728841	0.91755226	0.034910973	-0.95579449	1.3312742	-0.14687898	-0.95580473	1.2998779	0.21510552	-1.0303763	1.3565978	0.036321789	-0.98668366	1.0095269	-0.210535	-1.0470632	0.99517831	0.26981547	-0.8062215	0.84081162	-0.19749255	-0.91318745	0.79707904	0.3120687
67	0.264	-1.2116578	0.078478526	-0.095247986	-0.76766071	0.036394632	0.089406112	-1.2245842	0.20780881	-0.1212182	-0.9024754	0.061256416	0.10973755	-1.2069865	0.21356505	-0.040044872	-0.88291678	0.080390276	0.023423146	-1.2776694	0.25932803	-0.073557312	-0.95700241	0.037718041	0.047419216	-0.89975656	0.39522228	-0.14633744	-0.83513449	0.44328816	0.13809839	-0.89559703	0.38185834	-0.024258638	-0.87078565	0.43192919	0.014662477	-0.97678369	0.78334057	-0.14221022	-0.94956716	0.80164016	0.20085787	-0.89940074	0.83443114	-0.10721355	-0.86740199	0.85104315	0.13738132	-1.0673372	0.9192224	0.035010104	-0.95023317	1.3331326	-0.14657835	-0.94954657	1.3019598	0.21527566	-1.0243468	1.3583131	0.036716228	-0.98224166	1.0117116	-0.20975794	-1.0396304	0.99697802	0.27069603	-0.80270015	0.84161241	-0.19772234	-0.90391036	0.79995986	0.31270333
68	0.268	-1.1948023	0.077694503	-0.094780346	-0.76776175	0.036429825	0.089479567	-1.2099063	0.20668642	-0.12041357	-0.90204399	0.061413226	0.109818	-1.1921941	0.21254192	-0.039322314	-0.88299327	0.080517815	0.023515971	-1.2640036	0.25722557	-0.072454129	-0.95707828	0.037713109	0.047500403	-0.88764095	0.39815419	-0.14565878	-0.83374797	0.44327355	0.13842308	-0.88289025	0.38484491	-0.023480617	-0.86950304	0.43219389	0.014769308	-0.9704004	0.78544469	-0.14165127	-0.94594322	0.80256047	0.20093826	-0.89320769	0.83645557	-0.1067708	-0.86314275	0.85229398	0.13809975	-1.0618293	0.92085014	0.034987403	-0.944652	1.3349785	-0.1462793	-0.94326512	1.3040375	0.21542075	-1.0183112	1.3600164	0.03712595	-0.97788973	1.013902	-0.2091234	-1.0322163	0.99876598	0.27161059	-0.79918878	0.84243435	-0.19798353	-0.89466837	0.80290567	0.31330573
69	0.272	-1.1775343	0.076819787	-0.094477853	-0.76784992	0.03645908	0.089530426	-1.1951206	0.20539771	-0.11961505	-0.90172495	0.061491224	0.10985984	-1.1773334	0.21133509	-0.038543213	-0.883065	0.080653913	0.02358283	-1.2501571	0.2547869	-0.071462019	-0.95716662	0.03771057	0.047598245	-0.87563135	0.40117988	-0.14495955	-0.83241868	0.44324464	0.13871902	-0.8702696	0.38792825	-0.022732973	-0.86815023	0.43247456	0.014861052	-0.96396613	0.78754612	-0.14119334	-0.94234365	0.80342897	0.20103958	-0.8868552	0.83850675	-0.10627772	-0.85860263	0.8536292	0.1388187	-1.056314	0.92243901	0.034908266	-0.93904934	1.3368038	-0.14597749	-0.93696588	1.3060969	0.21554871	-1.0122714	1.3617032	0.037542121	-0.97354615	1.0160535	-0.20850823	-1.0248381	1.0005466	0.27252348	-0.79570677	0.84326275	-0.19828434	-0.88543339	0.80589284	0.31387271
70	0.276	-1.1598978	0.075860279	-0.094280609	-0.76792891	0.036482204	0.089565353	-1.1802453	0.20394488	-0.11880072	-0.90162794	0.061452642	0.10985498	-1.1623295	0.20998024	-0.03773471	-0.88312445	0.080797963	0.023642787	-1.2361751	0.25203871	-0.070508536	-0.95726395	0.037734592	0.047695686	-0.8637066	0.4042807	-0.1442452	-0.83129736	0.44317488	0.13891672	-0.85786822	0.39108342	-0.02203436	-0.86670562	0.43277526	0.01498993	-0.95748515	0.78962362	-0.14084743	-0.93815516	0.80426519	0.20124397	-0.88045746	0.84055786	-0.10576555	-0.85340388	0.85508527	0.13960438	-1.050742	0.92399329	0.03483375	-0.93342142	1.3385996	-0.14566889	-0.93064764	1.3081239	0.21566323	-1.0062344	1.3633649	0.037960844	-0.96911757	1.0181418	-0.20780701	-1.0174939	1.0023337	0.27343556	-0.79227991	0.84408762	-0.19863323	-0.87618371	0.80889097	0.31439937
71	0.28	-1.1419695	0.074818572	-0.094104344	-0.7680014	0.036501887	0.089589787	-1.1652785	0.20232246	-0.11795041	-0.90168581	0.061348861	0.10982641	-1.1471611	0.20849149	-0.036934122	-0.88317205	0.080947197	0.023716209	-1.2221569	0.24904116	-0.069486376	-0.95736856	0.037784117	0.047782019	-0.85185314	0.40743217	-0.14351881	-0.83029644	0.44309028	0.13904744	-0.8457535	0.39429949	-0.021380576	-0.86540511	0.43304865	0.015144137	-0.9509666	0.79166206	-0.14058563	-0.93301147	0.80516689	0.20163181	-0.87413648	0.8425882	-0.10526619	-0.84764054	0.85664047	0.14047518	-1.0450643	0.92551778	0.034826719	-0.92777125	1.3403615	-0.14535054	-0.92431934	1.3101174	0.21576664	-1.0002098	1.3649961	0.03838107	-0.9645636	1.0201785	-0.20698345	-1.010186	1.0041253	0.27433811	-0.78894952	0.84490972	-0.19904151	-0.86691383	0.81188273	0.31488807
72	0.284	-1.1237567	0.073718738	-0.093924648	-0.76807055	0.036522693	0.089609318	-1.1502142	0.20052852	-0.11706669	-0.90177066	0.061266432	0.10981236	-1.131896	0.20687504	-0.03615497	-0.88321776	0.08109845	0.023808342	-1.2081173	0.24581003	-0.068418186	-0.95748315	0.037840012	0.047863618	-0.84006516	0.41060945	-0.14277703	-0.8292384	0.4430426	0.13918188	-0.83387047	0.39760105	-0.020722961	-0.86450352	0.43321122	0.015258346	-0.94442553	0.79367496	-0.14039145	-0.9271094	0.80618799	0.20220466	-0.86790516	0.84459437	-0.10478208	-0.84164377	0.85822724	0.14141431	-1.0392429	0.92701238	0.034955189	-0.92211119	1.3420869	-0.14502486	-0.91799225	1.312084	0.21586512	-0.99419952	1.3665929	0.038799254	-0.95988818	1.0221812	-0.20605351	-1.0029554	1.0058978	0.27518598	-0.78573164	0.84573417	-0.1995114	-0.85763588	0.81486732	0.31534747
73	0.288	-1.1052153	0.072589905	-0.093744219	-0.76813864	0.036548469	0.089630594	-1.1350451	0.19857323	-0.11617347	-0.90180926	0.061252402	0.10983741	-1.1165019	0.20516693	-0.035417547	-0.88326895	0.081249642	0.02390912	-1.1940126	0.24231678	-0.067385771	-0.95761162	0.037890808	0.047956054	-0.82834577	0.41379797	-0.14200794	-0.82812881	0.44303841	0.13932101	-0.82210483	0.40102674	-0.019997694	-0.8638611	0.4332538	0.015300002	-0.93786042	0.79569053	-0.140269	-0.92098546	0.807267	0.20281503	-0.86170384	0.84658534	-0.10429371	-0.83590274	0.85974726	0.14234729	-1.0332717	0.92846154	0.035287344	-0.91645305	1.3437681	-0.14469754	-0.91164298	1.3140233	0.21596343	-0.98819845	1.3681472	0.039207422	-0.9551199	1.0241525	-0.20506152	-0.99588694	1.0076152	0.2758967	-0.78259161	0.84656001	-0.20002397	-0.8483659	0.81784897	0.31578276
74	0.292	-1.0863155	0.071452427	-0.093554679	-0.76820708	0.036578554	0.089660249	-1.1197427	0.19647689	-0.11529626	-0.90180212	0.061306356	0.10990822	-1.1007744	0.20343275	-0.034770082	-0.88332372	0.08139906	0.024006463	-1.1798254	0.23853358	-0.066362958	-0.95774664	0.037946647	0.048062581	-0.81670932	0.41699492	-0.14119745	-0.82708646	0.44304255	0.1394255	-0.81038691	0.40459786	-0.019170798	-0.86308793	0.43328242	0.015303502	-0.93122488	0.79771358	-0.14025063	-0.91502715	0.80830482	0.2032867	-0.85548771	0.84856988	-0.1037779	-0.83069703	0.86116639	0.14317697	-1.0271866	0.92982808	0.035868767	-0.91079854	1.3453948	-0.14436956	-0.90521172	1.3159265	0.2160599	-0.98220333	1.3696482	0.039595846	-0.95036208	1.0260965	-0.20411942	-0.98903068	1.0092519	0.27642222	-0.77946964	0.8473767	-0.20054936	-0.83911283	0.82082488	0.31619252
